<svg xmlns="http://www.w3.org/2000/svg" width="28" height="19.385" viewBox="0 0 28 19.385">
  <g id="Icon_ionic-ios-mail" data-name="Icon ionic-ios-mail" transform="translate(-3.375 -7.875)">
    <path id="Path_67" data-name="Path 67" d="M31.146,10.355,23.9,17.768a.131.131,0,0,0,0,.189l5.068,5.425a.878.878,0,1,1-1.238,1.245l-5.048-5.4a.138.138,0,0,0-.2,0l-1.232,1.258A5.406,5.406,0,0,1,17.4,22.118a5.515,5.515,0,0,1-3.944-1.684l-1.185-1.211a.138.138,0,0,0-.2,0l-5.048,5.4a.878.878,0,0,1-1.238-1.245l5.068-5.425a.145.145,0,0,0,0-.189L3.6,10.355a.133.133,0,0,0-.229.095V25.283a2.165,2.165,0,0,0,2.154,2.164H29.221a2.165,2.165,0,0,0,2.154-2.164V10.45A.135.135,0,0,0,31.146,10.355Z" transform="translate(0 -0.188)"/>
    <path id="Path_68" data-name="Path 68" d="M17.44,19.758a3.74,3.74,0,0,0,2.638-1.064L30.662,8.329a2.172,2.172,0,0,0-1.336-.454H5.561a2.158,2.158,0,0,0-1.336.454L14.81,18.693A3.741,3.741,0,0,0,17.44,19.758Z" transform="translate(-0.066)"/>
  </g>
</svg>
